<?xml version="1.0" encoding="UTF-8" standalone="no" ?>
<!DOCTYPE svg PUBLIC "-//W3C//DTD SVG 1.1//EN" "http://www.w3.org/Graphics/SVG/1.1/DTD/svg11.dtd">
<svg xmlns="http://www.w3.org/2000/svg" xmlns:xlink="http://www.w3.org/1999/xlink" version="1.1" width="1080" height="1080" viewBox="0 0 1080 1080" xml:space="preserve">
<desc>Created with Fabric.js 5.2.4</desc>
<defs>
</defs>
<g transform="matrix(1 0 0 1 540 540)" id="710b08f0-8f0d-4207-8f57-5e0a32fc28f7"  >
</g>
<g transform="matrix(1 0 0 1 540 540)" id="3c143dd0-538b-4c9a-855e-f6552de4b2f2"  >
<rect style="stroke: none; stroke-width: 1; stroke-dasharray: none; stroke-linecap: butt; stroke-dashoffset: 0; stroke-linejoin: miter; stroke-miterlimit: 4; fill: rgb(255,255,255); fill-rule: nonzero; opacity: 1; visibility: hidden;" vector-effect="non-scaling-stroke"  x="-540" y="-540" rx="0" ry="0" width="1080" height="1080" />
</g>
<g transform="matrix(14.09 0 0 6.06 539.18 127.91)" id="1bc5ba5f-ccda-4ae6-a264-44ae41603e06"  >
<rect style="stroke: rgb(0,0,0); stroke-width: 0; stroke-dasharray: none; stroke-linecap: butt; stroke-dashoffset: 0; stroke-linejoin: miter; stroke-miterlimit: 4; fill: rgb(255,66,46); fill-rule: nonzero; opacity: 1;" vector-effect="non-scaling-stroke"  x="-37.46" y="-19.415" rx="0" ry="0" width="74.92" height="38.83" />
</g>
<g transform="matrix(0 0 NaN NaN 0 0)"  >
<g style=""   >
</g>
</g>
<g transform="matrix(0 0 NaN NaN 0 0)"  >
<g style=""   >
</g>
</g>
<g transform="matrix(0 0 NaN NaN 0 0)"  >
<g style=""   >
</g>
</g>
<g transform="matrix(0 0 NaN NaN 0 0)"  >
<g style=""   >
</g>
</g>
<g transform="matrix(14.09 0 0 6.06 539.65 478.69)" id="1bc5ba5f-ccda-4ae6-a264-44ae41603e06"  >
<rect style="stroke: rgb(0,0,0); stroke-width: 0; stroke-dasharray: none; stroke-linecap: butt; stroke-dashoffset: 0; stroke-linejoin: miter; stroke-miterlimit: 4; fill: rgb(255,66,46); fill-rule: nonzero; opacity: 1;" vector-effect="non-scaling-stroke"  x="-37.46" y="-19.415" rx="0" ry="0" width="74.92" height="38.83" />
</g>
<g transform="matrix(14.09 0 0 6.06 535.9 833.7)" id="1bc5ba5f-ccda-4ae6-a264-44ae41603e06"  >
<rect style="stroke: rgb(0,0,0); stroke-width: 0; stroke-dasharray: none; stroke-linecap: butt; stroke-dashoffset: 0; stroke-linejoin: miter; stroke-miterlimit: 4; fill: rgb(255,66,46); fill-rule: nonzero; opacity: 1;" vector-effect="non-scaling-stroke"  x="-37.46" y="-19.415" rx="0" ry="0" width="74.92" height="38.83" />
</g>
</svg>